<svg width="16" height="16" viewBox="0 0 16 16" xmlns="http://www.w3.org/2000/svg">
    <path d="m6.361 8.506 1.127.003.002 2.446.679-.24a1.1 1.1 0 1 1 0 2.077l-.68-.24-.001 2.44H7V15H2a1 1 0 0 1-1-1V8.509l1.123-.003v.027c0 1.17.949 2.12 2.12 2.12l.173-.007c1.09-.088 1.946-1 1.946-2.113l-.001-.027zm5.396-2.14a1.1 1.1 0 0 1 1.039 1.466l-.24.68h2.44V9H15v5a1 1 0 0 1-1 1H8.512l-.001-1.123h.026a2.12 2.12 0 0 0 2.12-2.119l-.007-.173a2.119 2.119 0 0 0-2.113-1.946l-.026.001.001-1.126 2.448-.002-.24-.68a1.1 1.1 0 0 1 1.037-1.466zM7.492 1l.001 1.123-.025-.001a2.12 2.12 0 0 0-2.121 2.12l.007.173a2.12 2.12 0 0 0 2.114 1.946l.025-.001v1.126l-2.448.002.24.68a1.1 1.1 0 1 1-2.077 0l.236-.668H1V2a1 1 0 0 1 1-1h5.492z" fill="#353E3A" fill-rule="nonzero" fill-opacity=".2"/>
</svg>
