<svg xmlns="http://www.w3.org/2000/svg" width="80" height="80" viewBox="0 0 80 80">
    <g fill="none" fill-rule="evenodd">
        <g fill="#353E3A" fill-rule="nonzero">
            <g>
                <path fill-opacity=".1" d="M0 0H80V80H0z" transform="translate(-104 -8) translate(104 8)"/>
                <path fill-opacity=".2" d="M40 48.729c11.046 0 20 3.419 20 7.636v.377c-.001.167-.003.332-.007.496l-.008.244C59.838 61.169 58.2 64 40 64s-19.838-2.83-19.985-6.518l-.008-.244c-.004-.164-.006-.33-.006-.496L20 56.365c0-4.218 8.954-7.636 20-7.636zm9.956-17.812c.111.602.172 1.22.172 1.854 0 5.59-4.535 12.869-10.129 12.869-5.593 0-10.128-7.279-10.128-12.87 0-.633.06-1.252.172-1.853l3.396 1.47 4.518 1.956c.568.245 1.294.38 2.044.38s1.475-.135 2.041-.38l4.52-1.957zM40.001 17c.541 0 1.082.089 1.494.266l12.14 5.252c.82.357.82.938 0 1.294l-3.144 1.36-1.04.45v4.013l-3.437 1.487-4.52 1.956c-.41.178-.952.267-1.493.267-.541 0-1.084-.09-1.495-.267l-4.518-1.956-3.437-1.487v-4.012l-1.04-.45-2.124-.92.07.575c.354.06.623.366.623.735 0 .331-.219.614-.517.71l.557 7.818c.024.328-.042.847-.145 1.158l-.455 1.359c-.051.156-.119.233-.187.233s-.136-.078-.188-.233l-.453-1.359c-.103-.31-.168-.83-.145-1.158l.558-7.818c-.301-.095-.518-.379-.518-.71 0-.369.269-.676.621-.736l.078-.617-.92-.398c-.822-.357-.822-.938 0-1.294l12.14-5.252c.411-.177.954-.266 1.495-.266z" transform="translate(-104 -8) translate(104 8)"/>
            </g>
        </g>
    </g>
</svg>
