<svg xmlns="http://www.w3.org/2000/svg" width="16" height="16" viewBox="0 0 16 16">
    <g fill="none" fill-rule="evenodd">
        <g fill="#353E3A" fill-rule="nonzero">
            <g>
                <g>
                    <path d="M7.5 1C11.09 1 14 3.91 14 7.5c0 1.434-.464 2.759-1.25 3.834l1.957 1.959c.39.39.39 1.024 0 1.414-.36.36-.928.388-1.32.083l-.094-.083-1.96-1.957C10.26 13.536 8.934 14 7.5 14 3.91 14 1 11.09 1 7.5S3.91 1 7.5 1zm0 2C5.015 3 3 5.015 3 7.5S5.015 12 7.5 12 12 9.985 12 7.5 9.985 3 7.5 3z" transform="translate(-16 -70) translate(8 56) translate(8 14)"/>
                </g>
            </g>
        </g>
    </g>
</svg>
